# xmcd CD database file
#
# Track frame offsets:
#	187
#	20395
#	38265
#
# Disc length: 777 seconds
#
# Revision: 0
# Processed by: cddbd v1.5.1PL0 Copyright (c) Steve Scherf et al.
# Submitted via: CDex 1.51
#
DISCID=12030703
DTITLE=坪倉唯子 - Jet'aime
DYEAR=1993
DGENRE=JPop
TTITLE0=Jet'aime
TTITLE1=Who's playing my part?
TTITLE2=Jet'aime カラオケ
EXTD=YEAR: 1993
EXTT0=
EXTT1=
EXTT2=
PLAYORDER=
